<svg xmlns="http://www.w3.org/2000/svg" xmlns:xlink="http://www.w3.org/1999/xlink" width="500" zoomAndPan="magnify" viewBox="0 0 375 374.999991" height="500" preserveAspectRatio="xMidYMid meet" version="1.0"><defs><g/><clipPath id="9dd1a018bb"><path d="M 140.972656 106.597656 L 233.972656 106.597656 L 233.972656 204.847656 L 140.972656 204.847656 Z M 140.972656 106.597656 " clip-rule="nonzero"/></clipPath></defs><rect x="-37.5" width="450" fill="#ffffff" y="-37.499999" height="449.999989" fill-opacity="1"/><rect x="-37.5" width="450" fill="#ffffff" y="-37.499999" height="449.999989" fill-opacity="1"/><g clip-path="url(#9dd1a018bb)"><path fill="#ff3131" d="M 188.359375 172.007812 L 195.480469 172.007812 L 195.480469 179.128906 L 188.359375 179.128906 Z M 179.527344 172.007812 L 186.648438 172.007812 L 186.648438 179.128906 L 179.527344 179.128906 Z M 188.359375 163.25 L 195.480469 163.25 L 195.480469 170.375 L 188.359375 170.375 Z M 179.527344 163.25 L 186.648438 163.25 L 186.648438 170.375 L 179.527344 170.375 Z M 159.769531 132.433594 C 163.96875 131.847656 167.984375 133.191406 171.085938 135.828125 C 169.503906 137.988281 165.269531 139.9375 160.152344 140.648438 C 155.546875 141.292969 151.40625 140.757812 149.152344 139.4375 C 151.554688 135.703125 155.316406 133.050781 159.769531 132.433594 Z M 140.976562 166.945312 C 153.589844 166.726562 162.539062 160.105469 162.824219 159.894531 C 154.792969 171.128906 147.351562 175.09375 140.976562 175.335938 L 140.976562 204.503906 C 147.761719 200.933594 187.007812 177.234375 187.503906 106.636719 C 174.953125 111.859375 157.867188 114.457031 140.976562 114.511719 Z M 214.851562 140.648438 C 209.738281 139.9375 205.5 137.988281 203.921875 135.828125 C 207.019531 133.195312 211.039062 131.847656 215.238281 132.429688 C 219.6875 133.050781 223.453125 135.703125 225.851562 139.4375 C 223.601562 140.757812 219.460938 141.292969 214.851562 140.648438 Z M 187.503906 106.636719 C 188 177.234375 227.246094 200.929688 234.027344 204.503906 L 234.027344 175.203125 C 221.414062 175.421875 212.460938 182.042969 212.175781 182.253906 C 220.210938 171.019531 227.652344 167.054688 234.027344 166.8125 L 234.027344 114.511719 C 217.136719 114.457031 200.050781 111.859375 187.503906 106.636719 " fill-opacity="1" fill-rule="nonzero"/></g><g fill="#000000" fill-opacity="1"><g transform="translate(43.910158, 242.083153)"><g><path d="M 1.144531 -17.675781 L 2.78125 -17.675781 C 3.484375 -17.675781 3.976562 -17.46875 4.316406 -16.53125 L 10.371094 0.46875 L 11.023438 0.46875 L 16.300781 -15.777344 C 16.609375 -16.6875 17.15625 -17.675781 18.484375 -17.675781 L 19.445312 -17.675781 L 19.445312 -18.507812 L 12.425781 -18.507812 L 12.425781 -17.675781 L 13.828125 -17.675781 C 14.894531 -17.675781 15.15625 -16.871094 15.15625 -16.300781 C 15.15625 -15.855469 15.023438 -15.078125 14.84375 -14.503906 L 11.410156 -3.953125 L 6.964844 -16.453125 C 6.890625 -16.636719 6.863281 -16.871094 6.863281 -17.027344 C 6.863281 -17.390625 7.253906 -17.675781 7.746094 -17.675781 L 9.460938 -17.675781 L 9.460938 -18.507812 L 1.144531 -18.507812 Z M 1.144531 -17.675781 "/></g></g></g><g fill="#000000" fill-opacity="1"><g transform="translate(63.976147, 242.083153)"><g><path d="M 1.613281 0 L 9.148438 0 L 9.148438 -0.832031 L 7.277344 -0.832031 C 6.785156 -0.832031 6.578125 -1.066406 6.578125 -1.535156 L 6.578125 -16.976562 C 6.578125 -17.46875 6.785156 -17.675781 7.277344 -17.675781 L 9.148438 -17.675781 L 9.148438 -18.507812 L 1.613281 -18.507812 L 1.613281 -17.675781 L 3.484375 -17.675781 C 3.976562 -17.675781 4.183594 -17.46875 4.183594 -16.976562 L 4.183594 -1.535156 C 4.183594 -1.066406 3.976562 -0.832031 3.484375 -0.832031 L 1.613281 -0.832031 Z M 1.613281 0 "/></g></g></g><g fill="#000000" fill-opacity="1"><g transform="translate(74.217075, 242.083153)"><g><path d="M 1.613281 0 L 16.117188 0 L 16.429688 -6.964844 L 15.777344 -6.964844 C 15.777344 -6.964844 15.492188 -3.769531 14.296875 -2.15625 C 13.515625 -1.144531 12.191406 -0.832031 11.4375 -0.832031 L 7.277344 -0.832031 C 6.785156 -0.832031 6.578125 -1.066406 6.578125 -1.535156 L 6.578125 -8.941406 L 8.863281 -8.941406 C 10.867188 -8.941406 10.996094 -6.863281 10.996094 -5.328125 L 11.671875 -5.328125 L 11.671875 -13.464844 L 10.996094 -13.464844 C 10.996094 -11.957031 10.867188 -9.878906 8.863281 -9.878906 L 6.578125 -9.878906 L 6.578125 -16.976562 C 6.578125 -17.46875 6.785156 -17.675781 7.277344 -17.675781 L 11.464844 -17.675781 C 12.503906 -17.675781 13.699219 -17.390625 14.503906 -16.167969 C 15.546875 -14.582031 15.570312 -12.632812 15.570312 -12.632812 L 16.222656 -12.632812 L 16.117188 -18.507812 L 1.613281 -18.507812 L 1.613281 -17.675781 L 3.484375 -17.675781 C 3.976562 -17.675781 4.183594 -17.46875 4.183594 -16.976562 L 4.183594 -1.535156 C 4.183594 -1.066406 3.976562 -0.832031 3.484375 -0.832031 L 1.613281 -0.832031 Z M 1.613281 0 "/></g></g></g><g fill="#000000" fill-opacity="1"><g transform="translate(92.151705, 242.083153)"><g><path d="M 1.871094 -11.542969 L 2.523438 -11.542969 C 2.523438 -11.566406 2.597656 -14.6875 3.875 -16.324219 C 4.183594 -16.742188 5.09375 -17.675781 6.445312 -17.675781 L 7.640625 -17.675781 C 8.164062 -17.675781 8.34375 -17.46875 8.34375 -16.976562 L 8.34375 -1.535156 C 8.34375 -1.066406 8.109375 -0.832031 7.640625 -0.832031 L 5.148438 -0.832031 L 5.148438 0 L 13.933594 0 L 13.933594 -0.832031 L 11.4375 -0.832031 C 10.96875 -0.832031 10.734375 -1.066406 10.734375 -1.535156 L 10.734375 -16.976562 C 10.734375 -17.46875 10.96875 -17.675781 11.4375 -17.675781 L 12.632812 -17.675781 C 13.984375 -17.675781 14.894531 -16.742188 15.207031 -16.324219 C 16.480469 -14.6875 16.558594 -11.542969 16.558594 -11.542969 L 17.207031 -11.542969 L 17 -18.507812 L 2.078125 -18.507812 Z M 1.871094 -11.542969 "/></g></g></g><g fill="#000000" fill-opacity="1"><g transform="translate(110.710141, 242.083153)"><g><path d="M 1.613281 0 L 7.796875 0 L 7.796875 -0.832031 L 6.863281 -0.832031 C 5.902344 -0.832031 5.226562 -1.613281 5.226562 -2.910156 L 5.226562 -15.675781 L 5.328125 -15.675781 L 15.546875 0.46875 L 16.585938 0.46875 L 16.585938 -15.597656 C 16.585938 -16.898438 17.285156 -17.675781 18.25 -17.675781 L 19.183594 -17.675781 L 19.183594 -18.507812 L 12.996094 -18.507812 L 12.996094 -17.675781 L 13.933594 -17.675781 C 14.894531 -17.675781 15.546875 -16.898438 15.546875 -15.597656 L 15.546875 -4.003906 L 6.523438 -18.507812 L 1.613281 -18.507812 L 1.613281 -17.675781 L 3.484375 -17.675781 C 3.976562 -17.675781 4.160156 -17.46875 4.183594 -16.976562 L 4.183594 -2.910156 C 4.183594 -1.613281 3.535156 -0.832031 2.546875 -0.832031 L 1.613281 -0.832031 Z M 1.613281 0 "/></g></g></g><g fill="#000000" fill-opacity="1"><g transform="translate(130.72414, 242.083153)"><g><path d="M 6.914062 -6.394531 L 9.539062 -14.269531 L 12.242188 -6.394531 Z M 1.195312 0 L 8.320312 0 L 8.320312 -0.832031 L 6.941406 -0.832031 C 5.875 -0.832031 5.613281 -1.636719 5.613281 -2.210938 C 5.613281 -2.652344 5.796875 -3.25 5.980469 -3.769531 L 6.578125 -5.457031 L 12.582031 -5.457031 L 13.75 -2.054688 C 13.828125 -1.871094 13.855469 -1.636719 13.855469 -1.480469 C 13.855469 -1.144531 13.464844 -0.832031 12.945312 -0.832031 L 11.230469 -0.832031 L 11.230469 0 L 19.289062 0 L 19.289062 -0.832031 L 17.832031 -0.832031 C 17.128906 -0.832031 16.636719 -1.066406 16.273438 -1.976562 L 10.632812 -18.507812 L 9.929688 -18.507812 L 4.339844 -2.730469 C 4.027344 -1.898438 3.484375 -0.832031 2.15625 -0.832031 L 1.195312 -0.832031 Z M 1.195312 0 "/></g></g></g><g fill="#000000" fill-opacity="1"><g transform="translate(150.58219, 242.083153)"><g><path d="M 1.613281 0 L 7.796875 0 L 7.796875 -0.832031 L 6.863281 -0.832031 C 5.902344 -0.832031 5.226562 -1.613281 5.226562 -2.910156 L 5.226562 -16.167969 L 5.382812 -16.167969 L 10.347656 0.3125 L 10.96875 0.3125 L 15.726562 -16.871094 L 15.726562 -1.535156 C 15.726562 -1.066406 15.519531 -0.832031 15.023438 -0.832031 L 13.152344 -0.832031 L 13.152344 0 L 20.691406 0 L 20.691406 -0.832031 L 18.820312 -0.832031 C 18.328125 -0.832031 18.117188 -1.066406 18.117188 -1.535156 L 18.117188 -16.976562 C 18.117188 -17.46875 18.328125 -17.675781 18.820312 -17.675781 L 20.691406 -17.675781 L 20.691406 -18.507812 L 15.3125 -18.507812 L 11.359375 -4.183594 L 7.121094 -18.507812 L 1.613281 -18.507812 L 1.613281 -17.675781 L 3.484375 -17.675781 C 3.976562 -17.675781 4.183594 -17.46875 4.183594 -16.976562 L 4.183594 -2.910156 C 4.183594 -1.613281 3.507812 -0.832031 2.546875 -0.832031 L 1.613281 -0.832031 Z M 1.613281 0 "/></g></g></g><g fill="#000000" fill-opacity="1"><g transform="translate(172.36366, 242.083153)"><g/></g></g><g fill="#000000" fill-opacity="1"><g transform="translate(179.641484, 242.083153)"><g><path d="M 1.613281 0 L 7.796875 0 L 7.796875 -0.832031 L 6.863281 -0.832031 C 5.902344 -0.832031 5.226562 -1.613281 5.226562 -2.910156 L 5.226562 -15.675781 L 5.328125 -15.675781 L 15.546875 0.46875 L 16.585938 0.46875 L 16.585938 -15.597656 C 16.585938 -16.898438 17.285156 -17.675781 18.25 -17.675781 L 19.183594 -17.675781 L 19.183594 -18.507812 L 12.996094 -18.507812 L 12.996094 -17.675781 L 13.933594 -17.675781 C 14.894531 -17.675781 15.546875 -16.898438 15.546875 -15.597656 L 15.546875 -4.003906 L 6.523438 -18.507812 L 1.613281 -18.507812 L 1.613281 -17.675781 L 3.484375 -17.675781 C 3.976562 -17.675781 4.160156 -17.46875 4.183594 -16.976562 L 4.183594 -2.910156 C 4.183594 -1.613281 3.535156 -0.832031 2.546875 -0.832031 L 1.613281 -0.832031 Z M 1.613281 0 "/></g></g></g><g fill="#000000" fill-opacity="1"><g transform="translate(199.655482, 242.083153)"><g><path d="M 6.914062 -6.394531 L 9.539062 -14.269531 L 12.242188 -6.394531 Z M 1.195312 0 L 8.320312 0 L 8.320312 -0.832031 L 6.941406 -0.832031 C 5.875 -0.832031 5.613281 -1.636719 5.613281 -2.210938 C 5.613281 -2.652344 5.796875 -3.25 5.980469 -3.769531 L 6.578125 -5.457031 L 12.582031 -5.457031 L 13.75 -2.054688 C 13.828125 -1.871094 13.855469 -1.636719 13.855469 -1.480469 C 13.855469 -1.144531 13.464844 -0.832031 12.945312 -0.832031 L 11.230469 -0.832031 L 11.230469 0 L 19.289062 0 L 19.289062 -0.832031 L 17.832031 -0.832031 C 17.128906 -0.832031 16.636719 -1.066406 16.273438 -1.976562 L 10.632812 -18.507812 L 9.929688 -18.507812 L 4.339844 -2.730469 C 4.027344 -1.898438 3.484375 -0.832031 2.15625 -0.832031 L 1.195312 -0.832031 Z M 1.195312 0 "/></g></g></g><g fill="#000000" fill-opacity="1"><g transform="translate(219.513533, 242.083153)"><g><path d="M 1.871094 -11.542969 L 2.523438 -11.542969 C 2.523438 -11.566406 2.597656 -14.6875 3.875 -16.324219 C 4.183594 -16.742188 5.09375 -17.675781 6.445312 -17.675781 L 7.640625 -17.675781 C 8.164062 -17.675781 8.34375 -17.46875 8.34375 -16.976562 L 8.34375 -1.535156 C 8.34375 -1.066406 8.109375 -0.832031 7.640625 -0.832031 L 5.148438 -0.832031 L 5.148438 0 L 13.933594 0 L 13.933594 -0.832031 L 11.4375 -0.832031 C 10.96875 -0.832031 10.734375 -1.066406 10.734375 -1.535156 L 10.734375 -16.976562 C 10.734375 -17.46875 10.96875 -17.675781 11.4375 -17.675781 L 12.632812 -17.675781 C 13.984375 -17.675781 14.894531 -16.742188 15.207031 -16.324219 C 16.480469 -14.6875 16.558594 -11.542969 16.558594 -11.542969 L 17.207031 -11.542969 L 17 -18.507812 L 2.078125 -18.507812 Z M 1.871094 -11.542969 "/></g></g></g><g fill="#000000" fill-opacity="1"><g transform="translate(238.07198, 242.083153)"><g><path d="M 1.613281 0 L 9.148438 0 L 9.148438 -0.832031 L 7.277344 -0.832031 C 6.785156 -0.832031 6.578125 -1.066406 6.578125 -1.535156 L 6.578125 -16.976562 C 6.578125 -17.46875 6.785156 -17.675781 7.277344 -17.675781 L 9.148438 -17.675781 L 9.148438 -18.507812 L 1.613281 -18.507812 L 1.613281 -17.675781 L 3.484375 -17.675781 C 3.976562 -17.675781 4.183594 -17.46875 4.183594 -16.976562 L 4.183594 -1.535156 C 4.183594 -1.066406 3.976562 -0.832031 3.484375 -0.832031 L 1.613281 -0.832031 Z M 1.613281 0 "/></g></g></g><g fill="#000000" fill-opacity="1"><g transform="translate(248.312908, 242.083153)"><g><path d="M 4.574219 -9.253906 C 4.574219 -14.558594 5.769531 -18.144531 9.359375 -18.144531 C 12.945312 -18.144531 14.140625 -14.558594 14.140625 -9.253906 C 14.140625 -3.953125 12.945312 -0.363281 9.359375 -0.363281 C 5.769531 -0.363281 4.574219 -3.953125 4.574219 -9.253906 Z M 1.820312 -9.253906 C 1.820312 -4.339844 4.835938 0.46875 9.359375 0.46875 C 13.882812 0.46875 16.898438 -4.339844 16.898438 -9.253906 C 16.898438 -14.167969 13.882812 -18.976562 9.359375 -18.976562 C 4.835938 -18.976562 1.820312 -14.167969 1.820312 -9.253906 Z M 1.820312 -9.253906 "/></g></g></g><g fill="#000000" fill-opacity="1"><g transform="translate(266.507456, 242.083153)"><g><path d="M 1.613281 0 L 7.796875 0 L 7.796875 -0.832031 L 6.863281 -0.832031 C 5.902344 -0.832031 5.226562 -1.613281 5.226562 -2.910156 L 5.226562 -15.675781 L 5.328125 -15.675781 L 15.546875 0.46875 L 16.585938 0.46875 L 16.585938 -15.597656 C 16.585938 -16.898438 17.285156 -17.675781 18.25 -17.675781 L 19.183594 -17.675781 L 19.183594 -18.507812 L 12.996094 -18.507812 L 12.996094 -17.675781 L 13.933594 -17.675781 C 14.894531 -17.675781 15.546875 -16.898438 15.546875 -15.597656 L 15.546875 -4.003906 L 6.523438 -18.507812 L 1.613281 -18.507812 L 1.613281 -17.675781 L 3.484375 -17.675781 C 3.976562 -17.675781 4.160156 -17.46875 4.183594 -16.976562 L 4.183594 -2.910156 C 4.183594 -1.613281 3.535156 -0.832031 2.546875 -0.832031 L 1.613281 -0.832031 Z M 1.613281 0 "/></g></g></g><g fill="#000000" fill-opacity="1"><g transform="translate(286.521454, 242.083153)"><g><path d="M 6.914062 -6.394531 L 9.539062 -14.269531 L 12.242188 -6.394531 Z M 1.195312 0 L 8.320312 0 L 8.320312 -0.832031 L 6.941406 -0.832031 C 5.875 -0.832031 5.613281 -1.636719 5.613281 -2.210938 C 5.613281 -2.652344 5.796875 -3.25 5.980469 -3.769531 L 6.578125 -5.457031 L 12.582031 -5.457031 L 13.75 -2.054688 C 13.828125 -1.871094 13.855469 -1.636719 13.855469 -1.480469 C 13.855469 -1.144531 13.464844 -0.832031 12.945312 -0.832031 L 11.230469 -0.832031 L 11.230469 0 L 19.289062 0 L 19.289062 -0.832031 L 17.832031 -0.832031 C 17.128906 -0.832031 16.636719 -1.066406 16.273438 -1.976562 L 10.632812 -18.507812 L 9.929688 -18.507812 L 4.339844 -2.730469 C 4.027344 -1.898438 3.484375 -0.832031 2.15625 -0.832031 L 1.195312 -0.832031 Z M 1.195312 0 "/></g></g></g><g fill="#000000" fill-opacity="1"><g transform="translate(306.379516, 242.083153)"><g><path d="M 1.613281 0 L 15.570312 0 L 15.910156 -6.992188 L 15.257812 -6.992188 C 15.257812 -6.992188 14.972656 -3.796875 13.777344 -2.183594 C 12.996094 -1.167969 11.671875 -0.832031 10.917969 -0.832031 L 7.277344 -0.832031 C 6.785156 -0.832031 6.578125 -1.066406 6.578125 -1.535156 L 6.578125 -16.976562 C 6.578125 -17.46875 6.785156 -17.675781 7.277344 -17.675781 L 9.566406 -17.675781 L 9.566406 -18.507812 L 1.613281 -18.507812 L 1.613281 -17.675781 L 3.484375 -17.675781 C 3.976562 -17.675781 4.183594 -17.46875 4.183594 -16.976562 L 4.183594 -1.535156 C 4.183594 -1.066406 3.976562 -0.832031 3.484375 -0.832031 L 1.613281 -0.832031 Z M 1.613281 0 "/></g></g></g><g fill="#000000" fill-opacity="1"><g transform="translate(323.800768, 242.083153)"><g/></g></g><g fill="#000000" fill-opacity="1"><g transform="translate(106.888591, 265.702015)"><g><path d="M 8.90625 -4.34375 C 8.90625 -3.019531 8.460938 -1.957031 7.578125 -1.15625 C 7.179688 -0.789062 6.65625 -0.503906 6 -0.296875 C 5.351562 -0.0976562 4.65625 0 3.90625 0 L 0.203125 0 L 0.203125 -0.25 C 0.703125 -0.28125 1.019531 -0.363281 1.15625 -0.5 C 1.289062 -0.644531 1.359375 -0.953125 1.359375 -1.421875 L 1.359375 -7.1875 C 1.359375 -7.664062 1.289062 -7.96875 1.15625 -8.09375 C 1.03125 -8.226562 0.710938 -8.316406 0.203125 -8.359375 L 0.203125 -8.609375 L 3.71875 -8.609375 C 5.550781 -8.609375 6.910156 -8.148438 7.796875 -7.234375 C 8.535156 -6.503906 8.90625 -5.539062 8.90625 -4.34375 Z M 7.484375 -4.25 C 7.484375 -5.6875 6.96875 -6.757812 5.9375 -7.46875 C 5.320312 -7.90625 4.460938 -8.125 3.359375 -8.125 C 3.085938 -8.125 2.90625 -8.085938 2.8125 -8.015625 C 2.71875 -7.953125 2.671875 -7.820312 2.671875 -7.625 L 2.671875 -1.015625 C 2.671875 -0.804688 2.71875 -0.664062 2.8125 -0.59375 C 2.914062 -0.519531 3.097656 -0.484375 3.359375 -0.484375 C 4.429688 -0.484375 5.28125 -0.660156 5.90625 -1.015625 C 6.957031 -1.628906 7.484375 -2.707031 7.484375 -4.25 Z M 7.484375 -4.25 "/></g></g></g><g fill="#000000" fill-opacity="1"><g transform="translate(120.470781, 265.702015)"><g><path d="M 8.5625 0 L 6.46875 0 L 3.375 -4 L 2.65625 -3.984375 L 2.65625 -1.421875 C 2.65625 -0.953125 2.722656 -0.644531 2.859375 -0.5 C 2.992188 -0.363281 3.316406 -0.28125 3.828125 -0.25 L 3.828125 0 L 0.21875 0 L 0.21875 -0.25 C 0.707031 -0.28125 1.015625 -0.367188 1.140625 -0.515625 C 1.265625 -0.671875 1.328125 -1.019531 1.328125 -1.5625 L 1.328125 -7.1875 C 1.328125 -7.644531 1.265625 -7.941406 1.140625 -8.078125 C 1.015625 -8.210938 0.707031 -8.304688 0.21875 -8.359375 L 0.21875 -8.609375 L 3.8125 -8.609375 C 4.414062 -8.609375 4.96875 -8.53125 5.46875 -8.375 C 5.976562 -8.21875 6.359375 -8.003906 6.609375 -7.734375 C 6.941406 -7.347656 7.109375 -6.875 7.109375 -6.3125 C 7.109375 -5.675781 6.890625 -5.179688 6.453125 -4.828125 C 6.078125 -4.523438 5.515625 -4.296875 4.765625 -4.140625 L 7.4375 -0.859375 C 7.613281 -0.640625 7.78125 -0.484375 7.9375 -0.390625 C 8.101562 -0.304688 8.3125 -0.257812 8.5625 -0.25 Z M 5.6875 -6.34375 C 5.6875 -6.945312 5.492188 -7.394531 5.109375 -7.6875 C 4.722656 -7.976562 4.125 -8.125 3.3125 -8.125 C 3.050781 -8.125 2.875 -8.09375 2.78125 -8.03125 C 2.695312 -7.96875 2.65625 -7.84375 2.65625 -7.65625 L 2.65625 -4.453125 C 3.28125 -4.472656 3.742188 -4.507812 4.046875 -4.5625 C 4.359375 -4.625 4.660156 -4.738281 4.953125 -4.90625 C 5.441406 -5.164062 5.6875 -5.644531 5.6875 -6.34375 Z M 5.6875 -6.34375 "/></g></g></g><g fill="#000000" fill-opacity="1"><g transform="translate(133.338183, 265.702015)"><g><path d="M 9.171875 0 L 5.859375 0 L 5.859375 -0.25 C 6.210938 -0.25 6.457031 -0.285156 6.59375 -0.359375 C 6.707031 -0.421875 6.765625 -0.523438 6.765625 -0.671875 C 6.765625 -0.878906 6.6875 -1.175781 6.53125 -1.5625 L 6 -2.8125 L 2.59375 -2.8125 L 1.984375 -1.28125 C 1.921875 -1.101562 1.890625 -0.9375 1.890625 -0.78125 C 1.890625 -0.425781 2.179688 -0.25 2.765625 -0.25 L 2.765625 0 L 0.1875 0 L 0.1875 -0.25 C 0.5 -0.257812 0.742188 -0.378906 0.921875 -0.609375 C 1.097656 -0.847656 1.394531 -1.4375 1.8125 -2.375 L 4.515625 -8.765625 L 4.765625 -8.765625 L 8.015625 -1.375 C 8.234375 -0.894531 8.40625 -0.585938 8.53125 -0.453125 C 8.664062 -0.328125 8.878906 -0.257812 9.171875 -0.25 Z M 5.8125 -3.34375 L 4.296875 -6.921875 L 2.8125 -3.34375 Z M 5.8125 -3.34375 "/></g></g></g><g fill="#000000" fill-opacity="1"><g transform="translate(146.920371, 265.702015)"><g><path d="M 11.21875 0 L 7.578125 0 L 7.578125 -0.25 C 8.085938 -0.28125 8.410156 -0.367188 8.546875 -0.515625 C 8.691406 -0.671875 8.765625 -1.019531 8.765625 -1.5625 L 8.765625 -7.453125 L 5.4375 0 L 5.25 0 L 1.984375 -7.15625 L 1.984375 -1.90625 C 1.984375 -1.25 2.0625 -0.8125 2.21875 -0.59375 C 2.375 -0.382812 2.707031 -0.269531 3.21875 -0.25 L 3.21875 0 L 0.15625 0 L 0.15625 -0.25 C 0.695312 -0.28125 1.039062 -0.394531 1.1875 -0.59375 C 1.34375 -0.800781 1.421875 -1.238281 1.421875 -1.90625 L 1.421875 -7.1875 C 1.421875 -7.664062 1.347656 -7.972656 1.203125 -8.109375 C 1.054688 -8.242188 0.71875 -8.328125 0.1875 -8.359375 L 0.1875 -8.609375 L 2.75 -8.609375 L 5.765625 -2.046875 L 8.625 -8.609375 L 11.21875 -8.609375 L 11.21875 -8.359375 C 10.726562 -8.316406 10.414062 -8.222656 10.28125 -8.078125 C 10.15625 -7.941406 10.09375 -7.644531 10.09375 -7.1875 L 10.09375 -1.421875 C 10.09375 -0.960938 10.160156 -0.660156 10.296875 -0.515625 C 10.429688 -0.367188 10.738281 -0.28125 11.21875 -0.25 Z M 11.21875 0 "/></g></g></g><g fill="#000000" fill-opacity="1"><g transform="translate(162.672899, 265.702015)"><g><path d="M 9.171875 0 L 5.859375 0 L 5.859375 -0.25 C 6.210938 -0.25 6.457031 -0.285156 6.59375 -0.359375 C 6.707031 -0.421875 6.765625 -0.523438 6.765625 -0.671875 C 6.765625 -0.878906 6.6875 -1.175781 6.53125 -1.5625 L 6 -2.8125 L 2.59375 -2.8125 L 1.984375 -1.28125 C 1.921875 -1.101562 1.890625 -0.9375 1.890625 -0.78125 C 1.890625 -0.425781 2.179688 -0.25 2.765625 -0.25 L 2.765625 0 L 0.1875 0 L 0.1875 -0.25 C 0.5 -0.257812 0.742188 -0.378906 0.921875 -0.609375 C 1.097656 -0.847656 1.394531 -1.4375 1.8125 -2.375 L 4.515625 -8.765625 L 4.765625 -8.765625 L 8.015625 -1.375 C 8.234375 -0.894531 8.40625 -0.585938 8.53125 -0.453125 C 8.664062 -0.328125 8.878906 -0.257812 9.171875 -0.25 Z M 5.8125 -3.34375 L 4.296875 -6.921875 L 2.8125 -3.34375 Z M 5.8125 -3.34375 "/></g></g></g><g fill="#000000" fill-opacity="1"><g transform="translate(176.25509, 265.702015)"><g/></g></g><g fill="#000000" fill-opacity="1"><g transform="translate(183.703156, 265.702015)"><g><path d="M 7.703125 -6.390625 L 7.390625 -6.390625 C 7.242188 -7.109375 7.046875 -7.566406 6.796875 -7.765625 C 6.554688 -7.960938 6.066406 -8.0625 5.328125 -8.0625 L 4.625 -8.0625 L 4.625 -1.421875 C 4.625 -0.941406 4.695312 -0.628906 4.84375 -0.484375 C 4.988281 -0.347656 5.332031 -0.269531 5.875 -0.25 L 5.875 0 L 2.078125 0 L 2.078125 -0.25 C 2.617188 -0.28125 2.957031 -0.367188 3.09375 -0.515625 C 3.226562 -0.660156 3.296875 -1.007812 3.296875 -1.5625 L 3.296875 -8.0625 L 2.59375 -8.0625 C 1.875 -8.0625 1.390625 -7.960938 1.140625 -7.765625 C 0.890625 -7.566406 0.6875 -7.109375 0.53125 -6.390625 L 0.21875 -6.390625 L 0.296875 -8.609375 L 7.625 -8.609375 Z M 7.703125 -6.390625 "/></g></g></g><g fill="#000000" fill-opacity="1"><g transform="translate(195.842785, 265.702015)"><g><path d="M 9.125 0 L 5.515625 0 L 5.515625 -0.25 C 6.015625 -0.28125 6.328125 -0.367188 6.453125 -0.515625 C 6.585938 -0.660156 6.65625 -1.007812 6.65625 -1.5625 L 6.65625 -4.09375 L 2.71875 -4.09375 L 2.71875 -1.421875 C 2.71875 -0.960938 2.785156 -0.660156 2.921875 -0.515625 C 3.066406 -0.378906 3.378906 -0.289062 3.859375 -0.25 L 3.859375 0 L 0.25 0 L 0.25 -0.25 C 0.75 -0.28125 1.0625 -0.367188 1.1875 -0.515625 C 1.320312 -0.660156 1.390625 -1.007812 1.390625 -1.5625 L 1.390625 -7.1875 C 1.390625 -7.65625 1.320312 -7.957031 1.1875 -8.09375 C 1.0625 -8.226562 0.75 -8.316406 0.25 -8.359375 L 0.25 -8.609375 L 3.859375 -8.609375 L 3.859375 -8.359375 C 3.359375 -8.316406 3.039062 -8.226562 2.90625 -8.09375 C 2.78125 -7.957031 2.71875 -7.65625 2.71875 -7.1875 L 2.71875 -4.671875 L 6.65625 -4.671875 L 6.65625 -7.1875 C 6.65625 -7.65625 6.585938 -7.957031 6.453125 -8.09375 C 6.328125 -8.226562 6.015625 -8.316406 5.515625 -8.359375 L 5.515625 -8.609375 L 9.125 -8.609375 L 9.125 -8.359375 C 8.625 -8.316406 8.304688 -8.226562 8.171875 -8.09375 C 8.046875 -7.957031 7.984375 -7.65625 7.984375 -7.1875 L 7.984375 -1.421875 C 7.984375 -0.960938 8.050781 -0.660156 8.1875 -0.515625 C 8.320312 -0.378906 8.632812 -0.289062 9.125 -0.25 Z M 9.125 0 "/></g></g></g><g fill="#000000" fill-opacity="1"><g transform="translate(209.42497, 265.702015)"><g><path d="M 7.765625 -2.203125 L 7.171875 0 L 0.15625 0 L 0.15625 -0.25 C 0.632812 -0.28125 0.941406 -0.367188 1.078125 -0.515625 C 1.210938 -0.660156 1.28125 -0.960938 1.28125 -1.421875 L 1.28125 -7.1875 C 1.28125 -7.644531 1.210938 -7.941406 1.078125 -8.078125 C 0.953125 -8.222656 0.644531 -8.316406 0.15625 -8.359375 L 0.15625 -8.609375 L 7.0625 -8.609375 L 7.09375 -6.75 L 6.765625 -6.75 C 6.660156 -7.332031 6.488281 -7.703125 6.25 -7.859375 C 6.019531 -8.023438 5.535156 -8.109375 4.796875 -8.109375 L 3.046875 -8.109375 C 2.867188 -8.109375 2.75 -8.078125 2.6875 -8.015625 C 2.632812 -7.960938 2.609375 -7.847656 2.609375 -7.671875 L 2.609375 -4.78125 L 4.609375 -4.78125 C 5.140625 -4.78125 5.488281 -4.851562 5.65625 -5 C 5.832031 -5.144531 5.960938 -5.484375 6.046875 -6.015625 L 6.34375 -6.015625 L 6.34375 -3 L 6.046875 -3 C 5.960938 -3.539062 5.835938 -3.882812 5.671875 -4.03125 C 5.503906 -4.175781 5.148438 -4.25 4.609375 -4.25 L 2.609375 -4.25 L 2.609375 -1.046875 C 2.609375 -0.804688 2.644531 -0.664062 2.71875 -0.625 C 2.84375 -0.53125 3.265625 -0.484375 3.984375 -0.484375 L 4.328125 -0.484375 C 5.253906 -0.484375 5.914062 -0.59375 6.3125 -0.8125 C 6.71875 -1.03125 7.078125 -1.492188 7.390625 -2.203125 Z M 7.765625 -2.203125 "/></g></g></g><g fill="#000000" fill-opacity="1"><g transform="translate(221.564598, 265.702015)"><g><path d="M 9.171875 0 L 5.859375 0 L 5.859375 -0.25 C 6.210938 -0.25 6.457031 -0.285156 6.59375 -0.359375 C 6.707031 -0.421875 6.765625 -0.523438 6.765625 -0.671875 C 6.765625 -0.878906 6.6875 -1.175781 6.53125 -1.5625 L 6 -2.8125 L 2.59375 -2.8125 L 1.984375 -1.28125 C 1.921875 -1.101562 1.890625 -0.9375 1.890625 -0.78125 C 1.890625 -0.425781 2.179688 -0.25 2.765625 -0.25 L 2.765625 0 L 0.1875 0 L 0.1875 -0.25 C 0.5 -0.257812 0.742188 -0.378906 0.921875 -0.609375 C 1.097656 -0.847656 1.394531 -1.4375 1.8125 -2.375 L 4.515625 -8.765625 L 4.765625 -8.765625 L 8.015625 -1.375 C 8.234375 -0.894531 8.40625 -0.585938 8.53125 -0.453125 C 8.664062 -0.328125 8.878906 -0.257812 9.171875 -0.25 Z M 5.8125 -3.34375 L 4.296875 -6.921875 L 2.8125 -3.34375 Z M 5.8125 -3.34375 "/></g></g></g><g fill="#000000" fill-opacity="1"><g transform="translate(235.146789, 265.702015)"><g><path d="M 7.703125 -6.390625 L 7.390625 -6.390625 C 7.242188 -7.109375 7.046875 -7.566406 6.796875 -7.765625 C 6.554688 -7.960938 6.066406 -8.0625 5.328125 -8.0625 L 4.625 -8.0625 L 4.625 -1.421875 C 4.625 -0.941406 4.695312 -0.628906 4.84375 -0.484375 C 4.988281 -0.347656 5.332031 -0.269531 5.875 -0.25 L 5.875 0 L 2.078125 0 L 2.078125 -0.25 C 2.617188 -0.28125 2.957031 -0.367188 3.09375 -0.515625 C 3.226562 -0.660156 3.296875 -1.007812 3.296875 -1.5625 L 3.296875 -8.0625 L 2.59375 -8.0625 C 1.875 -8.0625 1.390625 -7.960938 1.140625 -7.765625 C 0.890625 -7.566406 0.6875 -7.109375 0.53125 -6.390625 L 0.21875 -6.390625 L 0.296875 -8.609375 L 7.625 -8.609375 Z M 7.703125 -6.390625 "/></g></g></g><g fill="#000000" fill-opacity="1"><g transform="translate(247.286418, 265.702015)"><g><path d="M 8.5625 0 L 6.46875 0 L 3.375 -4 L 2.65625 -3.984375 L 2.65625 -1.421875 C 2.65625 -0.953125 2.722656 -0.644531 2.859375 -0.5 C 2.992188 -0.363281 3.316406 -0.28125 3.828125 -0.25 L 3.828125 0 L 0.21875 0 L 0.21875 -0.25 C 0.707031 -0.28125 1.015625 -0.367188 1.140625 -0.515625 C 1.265625 -0.671875 1.328125 -1.019531 1.328125 -1.5625 L 1.328125 -7.1875 C 1.328125 -7.644531 1.265625 -7.941406 1.140625 -8.078125 C 1.015625 -8.210938 0.707031 -8.304688 0.21875 -8.359375 L 0.21875 -8.609375 L 3.8125 -8.609375 C 4.414062 -8.609375 4.96875 -8.53125 5.46875 -8.375 C 5.976562 -8.21875 6.359375 -8.003906 6.609375 -7.734375 C 6.941406 -7.347656 7.109375 -6.875 7.109375 -6.3125 C 7.109375 -5.675781 6.890625 -5.179688 6.453125 -4.828125 C 6.078125 -4.523438 5.515625 -4.296875 4.765625 -4.140625 L 7.4375 -0.859375 C 7.613281 -0.640625 7.78125 -0.484375 7.9375 -0.390625 C 8.101562 -0.304688 8.3125 -0.257812 8.5625 -0.25 Z M 5.6875 -6.34375 C 5.6875 -6.945312 5.492188 -7.394531 5.109375 -7.6875 C 4.722656 -7.976562 4.125 -8.125 3.3125 -8.125 C 3.050781 -8.125 2.875 -8.09375 2.78125 -8.03125 C 2.695312 -7.96875 2.65625 -7.84375 2.65625 -7.65625 L 2.65625 -4.453125 C 3.28125 -4.472656 3.742188 -4.507812 4.046875 -4.5625 C 4.359375 -4.625 4.660156 -4.738281 4.953125 -4.90625 C 5.441406 -5.164062 5.6875 -5.644531 5.6875 -6.34375 Z M 5.6875 -6.34375 "/></g></g></g><g fill="#000000" fill-opacity="1"><g transform="translate(260.153822, 265.702015)"><g><path d="M 7.765625 -2.203125 L 7.171875 0 L 0.15625 0 L 0.15625 -0.25 C 0.632812 -0.28125 0.941406 -0.367188 1.078125 -0.515625 C 1.210938 -0.660156 1.28125 -0.960938 1.28125 -1.421875 L 1.28125 -7.1875 C 1.28125 -7.644531 1.210938 -7.941406 1.078125 -8.078125 C 0.953125 -8.222656 0.644531 -8.316406 0.15625 -8.359375 L 0.15625 -8.609375 L 7.0625 -8.609375 L 7.09375 -6.75 L 6.765625 -6.75 C 6.660156 -7.332031 6.488281 -7.703125 6.25 -7.859375 C 6.019531 -8.023438 5.535156 -8.109375 4.796875 -8.109375 L 3.046875 -8.109375 C 2.867188 -8.109375 2.75 -8.078125 2.6875 -8.015625 C 2.632812 -7.960938 2.609375 -7.847656 2.609375 -7.671875 L 2.609375 -4.78125 L 4.609375 -4.78125 C 5.140625 -4.78125 5.488281 -4.851562 5.65625 -5 C 5.832031 -5.144531 5.960938 -5.484375 6.046875 -6.015625 L 6.34375 -6.015625 L 6.34375 -3 L 6.046875 -3 C 5.960938 -3.539062 5.835938 -3.882812 5.671875 -4.03125 C 5.503906 -4.175781 5.148438 -4.25 4.609375 -4.25 L 2.609375 -4.25 L 2.609375 -1.046875 C 2.609375 -0.804688 2.644531 -0.664062 2.71875 -0.625 C 2.84375 -0.53125 3.265625 -0.484375 3.984375 -0.484375 L 4.328125 -0.484375 C 5.253906 -0.484375 5.914062 -0.59375 6.3125 -0.8125 C 6.71875 -1.03125 7.078125 -1.492188 7.390625 -2.203125 Z M 7.765625 -2.203125 "/></g></g></g></svg>